<svg width="578" height="400" viewBox="0 0 578 400" fill="none" xmlns="http://www.w3.org/2000/svg">
<mask id="mask0_cayley" style="mask-type:alpha" maskUnits="userSpaceOnUse" x="0" y="0" width="579" height="400">
<path d="M0 0.365967H578V399.568H0V0.365967Z" fill="#F5F5F5"/>
</mask>
<g mask="url(#mask0_cayley)">
<rect x="-111.156" y="-57.2307" width="790.533" height="533.02" rx="18.8706" fill="#E7E7EA"/>
<!-- Central hub representing group structure -->
<rect x="280.234" y="320.188" width="200.831" height="180.016" rx="10" transform="rotate(-145.501 280.234 320.188)" fill="white"/>
<rect x="280.234" y="320.188" width="200.831" height="180.016" rx="10" transform="rotate(-145.501 280.234 320.188)" fill="url(#paint0_linear_cayley)"/>
<rect x="280.234" y="320.188" width="200.831" height="180.016" rx="10" transform="rotate(-145.501 280.234 320.188)" fill="url(#paint1_radial_cayley)"/>
<!-- Group element nodes -->
<rect x="120.39" y="180.112" width="110.347" height="95.007" rx="10" transform="rotate(-145.501 120.39 180.112)" fill="white"/>
<rect x="120.39" y="180.112" width="110.347" height="95.007" rx="10" transform="rotate(-145.501 120.39 180.112)" fill="url(#paint2_linear_cayley)"/>
<rect x="120.39" y="180.112" width="110.347" height="95.007" rx="10" transform="rotate(-145.501 120.39 180.112)" fill="url(#paint3_radial_cayley)"/>
<!-- Generator connections -->
<rect x="450.234" y="250.188" width="130.831" height="110.016" rx="10" transform="rotate(-145.501 450.234 250.188)" fill="white"/>
<rect x="450.234" y="250.188" width="130.831" height="110.016" rx="10" transform="rotate(-145.501 450.234 250.188)" fill="url(#paint4_linear_cayley)"/>
<rect x="450.234" y="250.188" width="130.831" height="110.016" rx="10" transform="rotate(-145.501 450.234 250.188)" fill="url(#paint5_radial_cayley)"/>
<!-- Additional symmetry element -->
<rect x="380.39" y="120.112" width="85.347" height="75.007" rx="10" transform="rotate(-145.501 380.39 120.112)" fill="white"/>
<rect x="380.39" y="120.112" width="85.347" height="75.007" rx="10" transform="rotate(-145.501 380.39 120.112)" fill="url(#paint6_linear_cayley)"/>
<rect x="380.39" y="120.112" width="85.347" height="75.007" rx="10" transform="rotate(-145.501 380.39 120.112)" fill="url(#paint7_radial_cayley)"/>
</g>
<defs>
<linearGradient id="paint0_linear_cayley" x1="380.649" y1="320.188" x2="380.649" y2="500.203" gradientUnits="userSpaceOnUse">
<stop stop-color="#727272"/>
<stop offset="1" stop-opacity="0"/>
</linearGradient>
<radialGradient id="paint1_radial_cayley" cx="0" cy="0" r="1" gradientUnits="userSpaceOnUse" gradientTransform="translate(430.27 450.113) rotate(-129.96) scale(150.76 130.348)">
<stop stop-color="white"/>
<stop offset="0.671875" stop-color="white" stop-opacity="0"/>
</radialGradient>
<linearGradient id="paint2_linear_cayley" x1="175.064" y1="180.112" x2="175.064" y2="275.119" gradientUnits="userSpaceOnUse">
<stop stop-color="#727272"/>
<stop offset="1" stop-opacity="0"/>
</linearGradient>
<radialGradient id="paint3_radial_cayley" cx="0" cy="0" r="1" gradientUnits="userSpaceOnUse" gradientTransform="translate(205.323 240.265) rotate(-129.96) scale(80.0254 70.0011)">
<stop stop-color="white"/>
<stop offset="0.671875" stop-color="white" stop-opacity="0"/>
</radialGradient>
<linearGradient id="paint4_linear_cayley" x1="515.649" y1="250.188" x2="515.649" y2="360.203" gradientUnits="userSpaceOnUse">
<stop stop-color="#727272"/>
<stop offset="1" stop-opacity="0"/>
</linearGradient>
<radialGradient id="paint5_radial_cayley" cx="0" cy="0" r="1" gradientUnits="userSpaceOnUse" gradientTransform="translate(550.27 320.113) rotate(-129.96) scale(95.76 85.348)">
<stop stop-color="white"/>
<stop offset="0.671875" stop-color="white" stop-opacity="0"/>
</radialGradient>
<linearGradient id="paint6_linear_cayley" x1="423.064" y1="120.112" x2="423.064" y2="195.119" gradientUnits="userSpaceOnUse">
<stop stop-color="#727272"/>
<stop offset="1" stop-opacity="0"/>
</linearGradient>
<radialGradient id="paint7_radial_cayley" cx="0" cy="0" r="1" gradientUnits="userSpaceOnUse" gradientTransform="translate(445.323 170.265) rotate(-129.96) scale(60.0254 55.0011)">
<stop stop-color="white"/>
<stop offset="0.671875" stop-color="white" stop-opacity="0"/>
</radialGradient>
</defs>
</svg>