<svg width="578" height="400" viewBox="0 0 578 400" fill="none" xmlns="http://www.w3.org/2000/svg">
<mask id="mask0_tda" style="mask-type:alpha" maskUnits="userSpaceOnUse" x="0" y="0" width="579" height="400">
<path d="M0 0.365967H578V399.568H0V0.365967Z" fill="#F5F5F5"/>
</mask>
<g mask="url(#mask0_tda)">
<rect x="-111.156" y="-57.2307" width="790.533" height="533.02" rx="18.8706" fill="#E7E7EA"/>
<!-- Main topological form - representing data persistence -->
<rect x="150.234" y="380.188" width="280.831" height="220.016" rx="10" transform="rotate(-145.501 150.234 380.188)" fill="white"/>
<rect x="150.234" y="380.188" width="280.831" height="220.016" rx="10" transform="rotate(-145.501 150.234 380.188)" fill="url(#paint0_linear_tda)"/>
<rect x="150.234" y="380.188" width="280.831" height="220.016" rx="10" transform="rotate(-145.501 150.234 380.188)" fill="url(#paint1_radial_tda)"/>
<!-- Smaller persistence components -->
<rect x="420.39" y="290.112" width="95.347" height="85.007" rx="10" transform="rotate(-145.501 420.39 290.112)" fill="white"/>
<rect x="420.39" y="290.112" width="95.347" height="85.007" rx="10" transform="rotate(-145.501 420.39 290.112)" fill="url(#paint2_linear_tda)"/>
<rect x="420.39" y="290.112" width="95.347" height="85.007" rx="10" transform="rotate(-145.501 420.39 290.112)" fill="url(#paint3_radial_tda)"/>
<!-- Additional topological feature -->
<rect x="80.234" y="200.188" width="140.831" height="120.016" rx="10" transform="rotate(-145.501 80.234 200.188)" fill="white"/>
<rect x="80.234" y="200.188" width="140.831" height="120.016" rx="10" transform="rotate(-145.501 80.234 200.188)" fill="url(#paint4_linear_tda)"/>
<rect x="80.234" y="200.188" width="140.831" height="120.016" rx="10" transform="rotate(-145.501 80.234 200.188)" fill="url(#paint5_radial_tda)"/>
</g>
<defs>
<linearGradient id="paint0_linear_tda" x1="290.649" y1="380.188" x2="290.649" y2="600.203" gradientUnits="userSpaceOnUse">
<stop stop-color="#727272"/>
<stop offset="1" stop-opacity="0"/>
</linearGradient>
<radialGradient id="paint1_radial_tda" cx="0" cy="0" r="1" gradientUnits="userSpaceOnUse" gradientTransform="translate(380.27 560.113) rotate(-129.96) scale(180.76 160.348)">
<stop stop-color="white"/>
<stop offset="0.671875" stop-color="white" stop-opacity="0"/>
</radialGradient>
<linearGradient id="paint2_linear_tda" x1="468.064" y1="290.112" x2="468.064" y2="375.119" gradientUnits="userSpaceOnUse">
<stop stop-color="#727272"/>
<stop offset="1" stop-opacity="0"/>
</linearGradient>
<radialGradient id="paint3_radial_tda" cx="0" cy="0" r="1" gradientUnits="userSpaceOnUse" gradientTransform="translate(495.323 350.265) rotate(-129.96) scale(70.0254 65.0011)">
<stop stop-color="white"/>
<stop offset="0.671875" stop-color="white" stop-opacity="0"/>
</radialGradient>
<linearGradient id="paint4_linear_tda" x1="150.649" y1="200.188" x2="150.649" y2="320.203" gradientUnits="userSpaceOnUse">
<stop stop-color="#727272"/>
<stop offset="1" stop-opacity="0"/>
</linearGradient>
<radialGradient id="paint5_radial_tda" cx="0" cy="0" r="1" gradientUnits="userSpaceOnUse" gradientTransform="translate(200.27 280.113) rotate(-129.96) scale(100.76 90.348)">
<stop stop-color="white"/>
<stop offset="0.671875" stop-color="white" stop-opacity="0"/>
</radialGradient>
</defs>
</svg>