<svg width="400" height="300" viewBox="0 0 400 300" fill="none" xmlns="http://www.w3.org/2000/svg">
  <defs>
    <linearGradient id="bgGrad" x1="0%" y1="0%" x2="100%" y2="100%">
      <stop offset="0%" style="stop-color:#f8fafc;stop-opacity:1" />
      <stop offset="100%" style="stop-color:#e2e8f0;stop-opacity:1" />
    </linearGradient>
    <radialGradient id="nodeGrad1" cx="0" cy="0" r="1" gradientUnits="userSpaceOnUse">
      <stop stop-color="#3b82f6"/>
      <stop offset="1" stop-color="#1e40af"/>
    </radialGradient>
    <radialGradient id="nodeGrad2" cx="0" cy="0" r="1" gradientUnits="userSpaceOnUse">
      <stop stop-color="#10b981"/>
      <stop offset="1" stop-color="#047857"/>
    </radialGradient>
    <radialGradient id="nodeGrad3" cx="0" cy="0" r="1" gradientUnits="userSpaceOnUse">
      <stop stop-color="#ef4444"/>
      <stop offset="1" stop-color="#dc2626"/>
    </radialGradient>
    <linearGradient id="edgeGrad1" x1="0%" y1="0%" x2="100%" y2="0%">
      <stop offset="0%" style="stop-color:#3b82f6;stop-opacity:0.8" />
      <stop offset="100%" style="stop-color:#3b82f6;stop-opacity:0.3" />
    </linearGradient>
    <linearGradient id="edgeGrad2" x1="0%" y1="0%" x2="100%" y2="0%">
      <stop offset="0%" style="stop-color:#10b981;stop-opacity:0.8" />
      <stop offset="100%" style="stop-color:#10b981;stop-opacity:0.3" />
    </linearGradient>
  </defs>
  
  <!-- Background -->
  <rect width="400" height="300" fill="url(#bgGrad)" rx="12"/>
  
  <!-- Graph structure - abstract geometric representation -->
  <g transform="translate(200, 150)">
    
    <!-- Central hub -->
    <circle cx="0" cy="0" r="16" fill="url(#nodeGrad1)" opacity="0.9"/>
    
    <!-- Ring of nodes -->
    <circle cx="80" cy="0" r="12" fill="url(#nodeGrad2)" opacity="0.8"/>
    <circle cx="40" cy="69.3" r="12" fill="url(#nodeGrad2)" opacity="0.8"/>
    <circle cx="-40" cy="69.3" r="12" fill="url(#nodeGrad2)" opacity="0.8"/>
    <circle cx="-80" cy="0" r="12" fill="url(#nodeGrad2)" opacity="0.8"/>
    <circle cx="-40" cy="-69.3" r="12" fill="url(#nodeGrad2)" opacity="0.8"/>
    <circle cx="40" cy="-69.3" r="12" fill="url(#nodeGrad2)" opacity="0.8"/>
    
    <!-- Outer nodes -->
    <circle cx="120" cy="20" r="8" fill="url(#nodeGrad3)" opacity="0.7"/>
    <circle cx="60" cy="104" r="8" fill="url(#nodeGrad3)" opacity="0.7"/>
    <circle cx="-60" cy="104" r="8" fill="url(#nodeGrad3)" opacity="0.7"/>
    <circle cx="-120" cy="20" r="8" fill="url(#nodeGrad3)" opacity="0.7"/>
    <circle cx="-60" cy="-104" r="8" fill="url(#nodeGrad3)" opacity="0.7"/>
    <circle cx="60" cy="-104" r="8" fill="url(#nodeGrad3)" opacity="0.7"/>
    
    <!-- Edges - flowing curves -->
    <path d="M 0 0 Q 40 -20 80 0" stroke="url(#edgeGrad1)" stroke-width="3" fill="none" opacity="0.7"/>
    <path d="M 0 0 Q 20 35 40 69.3" stroke="url(#edgeGrad1)" stroke-width="3" fill="none" opacity="0.7"/>
    <path d="M 0 0 Q -20 35 -40 69.3" stroke="url(#edgeGrad1)" stroke-width="3" fill="none" opacity="0.7"/>
    <path d="M 0 0 Q -40 -20 -80 0" stroke="url(#edgeGrad1)" stroke-width="3" fill="none" opacity="0.7"/>
    <path d="M 0 0 Q -20 -35 -40 -69.3" stroke="url(#edgeGrad1)" stroke-width="3" fill="none" opacity="0.7"/>
    <path d="M 0 0 Q 20 -35 40 -69.3" stroke="url(#edgeGrad1)" stroke-width="3" fill="none" opacity="0.7"/>
    
    <!-- Secondary connections -->
    <path d="M 80 0 Q 100 10 120 20" stroke="url(#edgeGrad2)" stroke-width="2" fill="none" opacity="0.5"/>
    <path d="M 40 69.3 Q 50 87 60 104" stroke="url(#edgeGrad2)" stroke-width="2" fill="none" opacity="0.5"/>
    <path d="M -40 69.3 Q -50 87 -60 104" stroke="url(#edgeGrad2)" stroke-width="2" fill="none" opacity="0.5"/>
    <path d="M -80 0 Q -100 10 -120 20" stroke="url(#edgeGrad2)" stroke-width="2" fill="none" opacity="0.5"/>
    <path d="M -40 -69.3 Q -50 -87 -60 -104" stroke="url(#edgeGrad2)" stroke-width="2" fill="none" opacity="0.5"/>
    <path d="M 40 -69.3 Q 50 -87 60 -104" stroke="url(#edgeGrad2)" stroke-width="2" fill="none" opacity="0.5"/>
    
    <!-- Subtle connection lines -->
    <path d="M 80 0 A 80 80 0 0 1 40 69.3" stroke="#94a3b8" stroke-width="1" fill="none" opacity="0.3"/>
    <path d="M 40 69.3 A 80 80 0 0 1 -40 69.3" stroke="#94a3b8" stroke-width="1" fill="none" opacity="0.3"/>
    <path d="M -40 69.3 A 80 80 0 0 1 -80 0" stroke="#94a3b8" stroke-width="1" fill="none" opacity="0.3"/>
    <path d="M -80 0 A 80 80 0 0 1 -40 -69.3" stroke="#94a3b8" stroke-width="1" fill="none" opacity="0.3"/>
    <path d="M -40 -69.3 A 80 80 0 0 1 40 -69.3" stroke="#94a3b8" stroke-width="1" fill="none" opacity="0.3"/>
    <path d="M 40 -69.3 A 80 80 0 0 1 80 0" stroke="#94a3b8" stroke-width="1" fill="none" opacity="0.3"/>
  </g>
  
  <!-- Abstract geometric shapes for visual interest -->
  <g transform="translate(50, 50)" opacity="0.1">
    <path d="M0 0 L20 10 L15 30 L-5 20 Z" fill="#3b82f6"/>
  </g>
  <g transform="translate(320, 220)" opacity="0.1">
    <path d="M0 0 L15 8 L10 22 L-5 14 Z" fill="#10b981"/>
  </g>
  
  <!-- Minimal title indicator -->
  <circle cx="200" cy="40" r="3" fill="#64748b" opacity="0.6"/>
  <circle cx="210" cy="40" r="3" fill="#64748b" opacity="0.4"/>
  <circle cx="190" cy="40" r="3" fill="#64748b" opacity="0.4"/>
</svg>