<svg width="400" height="300" xmlns="http://www.w3.org/2000/svg">
  <defs>
    <linearGradient id="bgGrad" x1="0%" y1="0%" x2="100%" y2="100%">
      <stop offset="0%" style="stop-color:#f8fafc;stop-opacity:1" />
      <stop offset="100%" style="stop-color:#e2e8f0;stop-opacity:1" />
    </linearGradient>
    <radialGradient id="pointGrad" cx="0" cy="0" r="1" gradientUnits="userSpaceOnUse">
      <stop stop-color="#3b82f6"/>
      <stop offset="1" stop-color="#1e40af"/>
    </radialGradient>
    <radialGradient id="persistGrad1" cx="0" cy="0" r="1" gradientUnits="userSpaceOnUse">
      <stop stop-color="#ef4444"/>
      <stop offset="1" stop-color="#dc2626"/>
    </radialGradient>
    <radialGradient id="persistGrad2" cx="0" cy="0" r="1" gradientUnits="userSpaceOnUse">
      <stop stop-color="#10b981"/>
      <stop offset="1" stop-color="#047857"/>
    </radialGradient>
    <linearGradient id="barGrad1" x1="0%" y1="0%" x2="100%" y2="0%">
      <stop offset="0%" style="stop-color:#3b82f6;stop-opacity:0.8" />
      <stop offset="100%" style="stop-color:#3b82f6;stop-opacity:0.2" />
    </linearGradient>
    <linearGradient id="barGrad2" x1="0%" y1="0%" x2="100%" y2="0%">
      <stop offset="0%" style="stop-color:#ef4444;stop-opacity:0.8" />
      <stop offset="100%" style="stop-color:#ef4444;stop-opacity:0.2" />
    </linearGradient>
  </defs>
  
  <!-- Background -->
  <rect width="400" height="300" fill="url(#bgGrad)" rx="12"/>
  
  <!-- Abstract topological space representation -->
  <g transform="translate(80, 80)">
    <!-- Main topological structure - flowing organic shape -->
    <path d="M 0 60 Q 30 20 80 30 Q 120 40 140 20 Q 160 0 180 30 Q 200 60 170 90 Q 140 120 100 110 Q 60 100 30 120 Q 0 100 0 60 Z" 
          fill="none" stroke="#94a3b8" stroke-width="2" opacity="0.3"/>
    
    <!-- Inner structure - holes/voids -->
    <ellipse cx="90" cy="65" rx="25" ry="15" fill="none" stroke="#94a3b8" stroke-width="1" opacity="0.4"/>
    <ellipse cx="130" cy="45" rx="15" ry="10" fill="none" stroke="#94a3b8" stroke-width="1" opacity="0.4"/>
    
    <!-- Sample points with different homological dimensions -->
    <circle cx="30" cy="70" r="4" fill="url(#pointGrad)" opacity="0.8"/>
    <circle cx="60" cy="50" r="4" fill="url(#pointGrad)" opacity="0.8"/>
    <circle cx="100" cy="60" r="4" fill="url(#pointGrad)" opacity="0.8"/>
    <circle cx="140" cy="75" r="4" fill="url(#pointGrad)" opacity="0.8"/>
    <circle cx="170" cy="55" r="4" fill="url(#pointGrad)" opacity="0.8"/>
    <circle cx="120" cy="90" r="4" fill="url(#pointGrad)" opacity="0.8"/>
    <circle cx="80" cy="85" r="4" fill="url(#pointGrad)" opacity="0.8"/>
    
    <!-- Connecting simplices -->
    <path d="M 30 70 L 60 50 L 100 60 Z" fill="none" stroke="#3b82f6" stroke-width="1" opacity="0.2"/>
    <path d="M 100 60 L 140 75 L 120 90 Z" fill="none" stroke="#3b82f6" stroke-width="1" opacity="0.2"/>
    <path d="M 140 75 L 170 55 L 150 40 Z" fill="none" stroke="#3b82f6" stroke-width="1" opacity="0.2"/>
  </g>
  
  <!-- Persistence diagram - abstract mathematical representation -->
  <g transform="translate(260, 60)">
    <!-- Coordinate system suggestion -->
    <path d="M 0 100 L 100 100 M 0 0 L 0 100" stroke="#94a3b8" stroke-width="1" opacity="0.3"/>
    
    <!-- Diagonal line -->
    <path d="M 0 100 L 100 0" stroke="#94a3b8" stroke-width="1" stroke-dasharray="2,2" opacity="0.4"/>
    
    <!-- Persistence points -->
    <circle cx="15" cy="85" r="3" fill="url(#persistGrad1)" opacity="0.7"/>
    <circle cx="30" cy="70" r="3" fill="url(#persistGrad1)" opacity="0.7"/>
    <circle cx="45" cy="55" r="3" fill="url(#persistGrad2)" opacity="0.7"/>
    <circle cx="60" cy="40" r="3" fill="url(#persistGrad1)" opacity="0.7"/>
    <circle cx="75" cy="25" r="3" fill="url(#persistGrad2)" opacity="0.7"/>
  </g>
  
  <!-- Barcode representation -->
  <g transform="translate(50, 220)">
    <!-- Barcode bars with varying lengths -->
    <rect x="0" y="0" width="120" height="6" fill="url(#barGrad1)" rx="1" opacity="0.8"/>
    <rect x="5" y="10" width="180" height="6" fill="url(#barGrad2)" rx="1" opacity="0.8"/>
    <rect x="0" y="20" width="90" height="6" fill="url(#barGrad1)" rx="1" opacity="0.8"/>
    <rect x="10" y="30" width="150" height="6" fill="url(#barGrad2)" rx="1" opacity="0.8"/>
    <rect x="15" y="40" width="100" height="6" fill="url(#barGrad1)" rx="1" opacity="0.8"/>
  </g>
  
  <!-- Abstract geometric accents -->
  <g transform="translate(40, 40)" opacity="0.08">
    <path d="M0 0 L15 8 L10 20 L-5 12 Z" fill="#3b82f6"/>
  </g>
  <g transform="translate(320, 250)" opacity="0.08">
    <path d="M0 0 L12 6 L8 16 L-4 10 Z" fill="#ef4444"/>
  </g>
  
  <!-- Minimal indicators -->
  <circle cx="200" cy="35" r="2.5" fill="#64748b" opacity="0.5"/>
  <circle cx="210" cy="35" r="2.5" fill="#64748b" opacity="0.3"/>
  <circle cx="190" cy="35" r="2.5" fill="#64748b" opacity="0.3"/>
</svg>